<svg id="Layer_1" data-name="Layer 1" xmlns="http://www.w3.org/2000/svg" viewBox="0 0 82.95 18.47"><defs><style>.cls-1{fill:#b8debe;}.cls-2{fill:#373934;}.cls-3{fill:none;}</style></defs><path class="cls-1" d="M42.28,9.76a2.47,2.47,0,0,1-.69-2.14,5.62,5.62,0,0,1,.18-1.22c.08-.23.15-.47.21-.71a7,7,0,0,0-11.63.76,1.14,1.14,0,0,1,.15.23,3.66,3.66,0,0,1-.1,2,2.77,2.77,0,0,0,0,.49,9.41,9.41,0,0,0,.35,1.69A7.25,7.25,0,0,1,31,13.09a4.18,4.18,0,0,1-.21,1,7,7,0,0,0,12.63-4A1.47,1.47,0,0,1,42.28,9.76Z"/><path class="cls-2" d="M35.58,9h.65l.1,1.13h.86c0-.2,0-.4,0-.61,0-.57,0-.56.74-.5v2.87c-.68.08-.72.07-.74-.5,0-.15,0-.3,0-.49h-.87c0,.14,0,.32,0,.5,0,.55,0,.55-.67.49C35.55,11.37,35.57,9.66,35.58,9Z"/><path class="cls-2" d="M40.8,11.9H39a5.37,5.37,0,0,1,0-.56c0-.63,0-1.26,0-1.9,0-.42.07-.48.47-.49s.92,0,1.37,0c.09.56.08.59-.35.62-.15,0-.3,0-.44,0s-.31.24-.22.5c.18,0,.45,0,.63,0,.1.51.06.54-.6.59-.08.42,0,.51.3.51l.66,0Z"/><path class="cls-2" d="M34.63,9.65c-.19,0-.42,0-.67,0-.08.71,0,1.55-.1,2.24-.75.09-.71,0-.73-.58s0-1,0-1.51c0,0,0-.09,0-.15l-.48,0a.32.32,0,0,1-.33-.37.3.3,0,0,1,.32-.32c.58,0,1.17,0,1.76,0C34.69,9,34.71,9.13,34.63,9.65Z"/><path class="cls-2" d="M52.66,8.54a1.31,1.31,0,0,0-1.16.76l-1.66,3-.53,1a4.08,4.08,0,0,1-.29.5.53.53,0,0,1-.59.26.64.64,0,0,1-.51-.55,1.62,1.62,0,0,1,0-.62,7.94,7.94,0,0,1,.44-1.18c.55-1.11,1.12-2.2,1.67-3.29a1.63,1.63,0,0,0,.14-.34.63.63,0,0,0-1.08-.64,12.35,12.35,0,0,0-1.08,1.42c-.78,1.26-1.5,2.55-2.26,3.81a14.59,14.59,0,0,1-1.06,1.51.8.8,0,0,1-1.24.14.94.94,0,0,1-.13-1,2.76,2.76,0,0,1,.35-.71,38.38,38.38,0,0,0,2.2-3.78c.57-1,1.13-2.11,1.69-3.16a1.93,1.93,0,0,0,.19-1.33.65.65,0,0,0-.67-.56,1.67,1.67,0,0,0-1.33.53,5.1,5.1,0,0,0-1.46,2.16,5.35,5.35,0,0,0-.4,2.21.67.67,0,0,1-.64.8.86.86,0,0,1-1-.69,4.38,4.38,0,0,1,.41-3.07,6.81,6.81,0,0,1,1.54-2.18,6.69,6.69,0,0,1,2.44-1.43,2.47,2.47,0,0,1,2,.17,1.6,1.6,0,0,1,.83,1.16c.07.5.11,1,.17,1.56.48.07,1,0,1.49.41a2.23,2.23,0,0,1,.57,1.46,7,7,0,0,1,.75-.28,2.06,2.06,0,0,1,.77-.09c.84.12,1.22.43,1.19,1.3A5,5,0,0,1,54,9.77c-.48,1.05-.93,2.12-1.37,3.19a1.71,1.71,0,0,0,0,.6,1.23,1.23,0,0,0,1.28-.42,9.45,9.45,0,0,0,1.11-1.26,12.5,12.5,0,0,0,1.2-2.11,4.92,4.92,0,0,1,1.8-2.35,1.58,1.58,0,0,1,2.26.29,1,1,0,0,1,.14.23c.1-.16.16-.24.21-.33a.87.87,0,0,1,1.1-.34.58.58,0,0,1,.36.64,3.5,3.5,0,0,1-.23.76c-.37.93-.75,1.85-1.12,2.78a1.4,1.4,0,0,0,0,1.23c.17.32.31.38.64.19a2.38,2.38,0,0,0,.52-.43,10.71,10.71,0,0,0,1.46-2.19,15,15,0,0,0,1.21-4.1l-.1-.1a23.73,23.73,0,0,1-3-.94,8.76,8.76,0,0,0-5.72-.53c-.25.08-.93.44-1.19.49a.77.77,0,0,1-1-.4c-.18-.4-.05-.71.36-1a4.53,4.53,0,0,1,2.55-.9,7.45,7.45,0,0,1,2.4.23,21,21,0,0,1,2.23.61c1.16.36,2.32.75,3.47,1.12l.29,0c.12-.37.24-.74.35-1.1a6.91,6.91,0,0,1,1.15-2.36A1.72,1.72,0,0,1,68.36.51a2.31,2.31,0,0,1,1.51,3.2A4,4,0,0,1,66.62,6.1a.57.57,0,0,0-.57.49c-.15.65-.32,1.29-.48,1.94a1.25,1.25,0,0,0,0,.3l1.33-.93c.43-.31.85-.64,1.27-1s.57-.25.81,0a.73.73,0,0,1,.14,1,4.45,4.45,0,0,1-.84.78c-.64.46-1.32.88-2,1.35.16.37.29.73.46,1.07a12.76,12.76,0,0,0,.64,1.14,1.34,1.34,0,0,0,1.71.67l.48-.14a6.1,6.1,0,0,1-.16-1.38,4.73,4.73,0,0,1,.45-2.17,8.68,8.68,0,0,1,.85-1.4A3,3,0,0,1,72.61,6.5a1.66,1.66,0,0,1,2,1.51,3.54,3.54,0,0,1-.84,2.8c-.31.38-.55.81-.86,1.2s-.49.54-.84.91a2.71,2.71,0,0,0,1.08.19A2.4,2.4,0,0,0,74.91,12a13.62,13.62,0,0,0,1.53-3.11c.22-.58.43-1.16.67-1.72a1.85,1.85,0,0,1,.34-.53.62.62,0,0,1,.71-.2.64.64,0,0,1,.48.62c0,.49,0,.49.54.6a1.22,1.22,0,0,1,1.14,1.44A3.84,3.84,0,0,1,80,10.58c-.22.56-.44,1.11-.64,1.67a.87.87,0,0,0,0,.36c0,.42.2.57.62.55s.62-.12.93-.17a1.43,1.43,0,0,1,.87,0,.63.63,0,0,1,.36.86,1.14,1.14,0,0,1-1,.78c-.51.06-1,.14-1.52.15-1,0-1.58-.4-1.68-1.67a6.32,6.32,0,0,1,.25-1.71c.11-.5.31-1,.43-1.47a2,2,0,0,0,0-.73c0-.32-.32-.41-.52-.15a5,5,0,0,0-.52.9c-.37.78-.68,1.59-1.07,2.36a5.49,5.49,0,0,1-1.31,1.57,3.29,3.29,0,0,1-3.08.64,6.26,6.26,0,0,1-1.19-.43.56.56,0,0,0-.49,0,6.31,6.31,0,0,1-1.23.46,2.44,2.44,0,0,1-2.33-.67,7,7,0,0,1-1.51-2.33c-.07-.16-.15-.32-.25-.56-.07.16-.11.24-.14.33-.26.93-.51,1.86-.78,2.79-.13.46-.3.6-.71.64s-.59-.12-.78-.56l-.09-.11a.82.82,0,0,0-.22.19,2,2,0,0,1-1.44.69,1.14,1.14,0,0,1-1.23-.69c-.1-.2-.17-.42-.27-.68l-.3.28c-.37.3-.72.62-1.11.89a1.52,1.52,0,0,1-2.29-.67c0-.08-.08-.16-.13-.28-.45.34-.9.67-1.33,1a2.67,2.67,0,0,1-1.64.63A1.56,1.56,0,0,1,51,13.55a4.76,4.76,0,0,1,.4-1.3c.35-.79.76-1.55,1.13-2.33A2,2,0,0,0,52.66,8.54Zm4.52,3.37a5.2,5.2,0,0,0,.2.8c.12.29.31.34.59.2a1.5,1.5,0,0,0,.25-.19,3.73,3.73,0,0,0,1.21-1.93,4.34,4.34,0,0,0,.08-1.25.52.52,0,0,0-.81-.44,1.85,1.85,0,0,0-.69.54A4.91,4.91,0,0,0,57.18,11.91Zm13.91-.2c.24-.3.47-.55.68-.82a6.26,6.26,0,0,0,1.08-1.74.53.53,0,0,0-.2-.69A.55.55,0,0,0,72,8.7a5,5,0,0,0-1,2.12A1.28,1.28,0,0,0,71.09,11.71ZM66.65,4.63a3.17,3.17,0,0,0,1.66-1,.92.92,0,0,0,.18-1.07.76.76,0,0,0-.44-.38c-.1,0-.31.13-.41.25A6.17,6.17,0,0,0,66.65,4.63Z"/><path class="cls-2" d="M24.72,12.18c.16-.21.24-.31.32-.43.72-1.12,1.41-2.25,2.15-3.36A8.3,8.3,0,0,1,28.27,7.1a2.22,2.22,0,0,1,.87-.47.73.73,0,0,1,.86.51,1.31,1.31,0,0,1-.1,1.08,2.24,2.24,0,0,0-.12,1.59c.18.81.42,1.6.56,2.42A2.36,2.36,0,0,1,29,15a1.94,1.94,0,0,1-2.41-.71,1.23,1.23,0,0,1,.24-1.54.42.42,0,0,1,.57,0l.47.43c.31.28.62.28.83-.09a1.57,1.57,0,0,0,.2-.79,4.49,4.49,0,0,0-.21-1.08c-.14-.52-.32-1-.51-1.63l-.46.76c-.44.73-.83,1.47-1.31,2.17A13.12,13.12,0,0,1,25,14.3a2.88,2.88,0,0,1-3.17.62,1.42,1.42,0,0,1-1-1.61.89.89,0,0,1,.53-.68.49.49,0,0,1,.39,0,2.32,2.32,0,0,1,.48.4.62.62,0,0,0,.76.18.61.61,0,0,0,.39-.68,8.49,8.49,0,0,0-.24-1.24c-.07-.31-.21-.6-.3-.9s-.14-.58-.23-.95l-.53.86c-.46.76-.91,1.54-1.4,2.29-.24.39-.53.74-.81,1.11a3.62,3.62,0,0,1-4,1.33,6.67,6.67,0,0,0-1.24-.41,3.92,3.92,0,0,0-1.18.37,2,2,0,0,1-1.34-.08.82.82,0,0,1-.58-.9c.08-.39.34-.54.82-.57a8.53,8.53,0,0,0,1-.16c0-.67-.06-1.26,0-1.85a5.37,5.37,0,0,1,.92-2.61A4.58,4.58,0,0,1,15.3,7.56a2.13,2.13,0,0,1,1.84-.42,1.67,1.67,0,0,1,1.22,1.43,3.59,3.59,0,0,1-.52,2.53A7.09,7.09,0,0,1,16.3,13c-.18.15-.34.33-.55.54a2.48,2.48,0,0,0,2.4-.4,5.23,5.23,0,0,0,1.47-1.7,37,37,0,0,1,2.44-3.75,2.69,2.69,0,0,1,1.12-.93.84.84,0,0,1,.94.07,1,1,0,0,1,.3.91,1.93,1.93,0,0,1-.2.6,1.77,1.77,0,0,0-.12,1.28C24.29,10.41,24.49,11.23,24.72,12.18Zm-10,0,.15,0a15,15,0,0,0,1.66-2.15,1.29,1.29,0,0,0,.14-.65A.43.43,0,0,0,16.18,9a.92.92,0,0,0-.38.27,5.13,5.13,0,0,0-1.06,2.42A2.83,2.83,0,0,0,14.76,12.2Z"/><path class="cls-2" d="M12.44,5.88c-.13.62-.26,1.22-.37,1.82-.08.38-.1.77-.19,1.14a27.53,27.53,0,0,1-1.46,4.89,8.86,8.86,0,0,1-1.87,2.85,4,4,0,0,1-2.72,1.26A5.27,5.27,0,0,1,2.67,17a3.23,3.23,0,0,1-1.49-2.76,9.63,9.63,0,0,1,.1-1.52,3,3,0,0,1,1.66-2.13,1,1,0,0,1,.92,0,.75.75,0,0,1,.27,1.08,8,8,0,0,0-.7,1.05,3,3,0,0,0-.22,2A2,2,0,0,0,5.5,16.12a6.39,6.39,0,0,0,1.18-.42A3.27,3.27,0,0,0,8,14.23,16.57,16.57,0,0,0,9.93,8.85c.14-.8.3-1.59.43-2.39.06-.34,0-.7.08-1A.32.32,0,0,0,10.23,5a9.53,9.53,0,0,0-3.79-.82,9.28,9.28,0,0,0-1.81.32A2.8,2.8,0,0,0,3,5.84c-.06.09-.11.19-.17.27a.53.53,0,0,1-1-.09,1.41,1.41,0,0,1-.09-1.23A2.84,2.84,0,0,1,2.94,3.32a6.43,6.43,0,0,1,3.38-.88,9.19,9.19,0,0,1,2.06.42c1.51.47,3,1,4.51,1.48a3,3,0,0,0,2.22,0,7.05,7.05,0,0,0,1.1-.7.86.86,0,0,1,.68-.21.68.68,0,0,1,.56,1.08,2.72,2.72,0,0,1-1.89,1.3A8.69,8.69,0,0,1,14,6C13.54,6,13,5.92,12.44,5.88Z"/><rect class="cls-3" x="-644.58" y="-1107.07" width="1117" height="1490"/><rect class="cls-3" x="-644.58" y="-1107.07" width="1117" height="1490"/></svg>