<?xml version="1.0" encoding="UTF-8"?>
<svg id="Layer_1" data-name="Layer 1" xmlns="http://www.w3.org/2000/svg" viewBox="0 0 316.8 247.15">
  <defs>
    <style>
      .cls-1 {
        fill: none;
        stroke: #000;
        stroke-linecap: round;
        stroke-miterlimit: 10;
        stroke-width: 13px;
      }
    </style>
  </defs>
  <path class="cls-1" d="M92.46,100.16c6.55-11.08,15.43-20.71,25.64-28.53,9.81-7.52,21.99-15.46,34.64-16.29,3.34-.22,6.8.11,9.77,1.64,4.76,2.46,7.6,7.76,8.19,13.09s-.77,10.69-2.65,15.71c-4.76,12.7-12.82,23.85-20.64,34.94-17.93,25.43-35.18,51.55-56.67,74.05-6.04,6.33-12.47,12.4-19.93,16.96-4.56,2.79-10.76,4.88-14.93,1.55-3.09-2.46-3.68-6.89-3.56-10.84.43-14.18,7-27.66,16.06-38.57,20.4-24.56,50.58-40.24,80.98-48.42.98-.26,1.97-.52,2.96-.75,27.25-6.55,58.13-11.69,86.72-9.49"/>
  <path class="cls-1" d="M236.82,56.56c-39.82,32.16-64.63,82.18-66.16,133.34"/>
</svg>